<?xml version="1.0" encoding="UTF-8"?>
<!DOCTYPE svg PUBLIC "-//W3C//DTD SVG 1.1//EN" "http://www.w3.org/Graphics/SVG/1.1/DTD/svg11.dtd">
<svg xmlns="http://www.w3.org/2000/svg" version="1.1" width="3000px" height="3000px" style="shape-rendering:geometricPrecision; text-rendering:geometricPrecision; image-rendering:optimizeQuality; fill-rule:evenodd; clip-rule:evenodd" xmlns:xlink="http://www.w3.org/1999/xlink">
<g><path style="opacity:0.997" fill="#8383f2" d="M 869.5,841.5 C 870.846,851.226 872.68,860.893 875,870.5C 880.475,888.424 885.642,906.424 890.5,924.5C 890.41,927.152 891.076,929.485 892.5,931.5C 911.175,991.532 934.342,1049.87 962,1106.5C 986.576,1154.05 1016.24,1198.05 1051,1238.5C 1082.75,1274.93 1120.25,1303.76 1163.5,1325C 1176.06,1330.56 1189.06,1334.72 1202.5,1337.5C 1204.51,1338.92 1206.85,1339.59 1209.5,1339.5C 1230.63,1341.85 1250.63,1338.02 1269.5,1328C 1292.01,1313.39 1312.67,1296.39 1331.5,1277C 1349.25,1260.62 1368.91,1246.96 1390.5,1236C 1406.09,1229.94 1422.09,1225.44 1438.5,1222.5C 1446.19,1222 1453.86,1221.16 1461.5,1220C 1462.42,1219.72 1463.08,1219.22 1463.5,1218.5C 1484.26,1216.23 1505.1,1215.23 1526,1215.5C 1560.2,1216.26 1594.37,1217.43 1628.5,1219C 1660.27,1213.85 1691.93,1208.18 1723.5,1202C 1732.95,1201.04 1742.29,1201.71 1751.5,1204C 1756.22,1205.45 1757.72,1208.62 1756,1213.5C 1753.33,1217.5 1750.67,1221.5 1748,1225.5C 1720.64,1252.53 1692.97,1279.2 1665,1305.5C 1639.31,1332.52 1618.31,1362.86 1602,1396.5C 1589.56,1419.71 1579.06,1443.71 1570.5,1468.5C 1569.08,1470.51 1568.41,1472.85 1568.5,1475.5C 1566.73,1479.28 1565.23,1483.28 1564,1487.5C 1560.68,1499.13 1557.84,1510.8 1555.5,1522.5C 1554.08,1524.51 1553.41,1526.85 1553.5,1529.5C 1543.05,1582.92 1545.88,1635.58 1562,1687.5C 1567.39,1699.55 1574.39,1710.55 1583,1720.5C 1610,1748.52 1640.17,1772.36 1673.5,1792C 1751.34,1835.78 1834,1867.28 1921.5,1886.5C 1923.51,1887.92 1925.85,1888.59 1928.5,1888.5C 1970.07,1898.1 2012.07,1905.76 2054.5,1911.5C 2054.92,1912.22 2055.58,1912.72 2056.5,1913C 2066.83,1914.25 2077.17,1915.42 2087.5,1916.5C 2092.48,1917.05 2097.48,1917.39 2102.5,1917.5C 2107.27,1918.89 2112.27,1919.56 2117.5,1919.5C 2176.02,1925.16 2234.69,1928.16 2293.5,1928.5C 2445.37,1930.62 2595.54,1915.28 2744,1882.5C 2787.53,1871.33 2831.36,1861.16 2875.5,1852C 2887.75,1849.8 2900.09,1848.8 2912.5,1849C 2927.76,1849.43 2935.43,1857.26 2935.5,1872.5C 2934,1889.51 2929.83,1905.84 2923,1921.5C 2915.51,1937.16 2907.51,1952.49 2899,1967.5C 2870.44,2013.26 2838.44,2056.59 2803,2097.5C 2614.49,2309.78 2382.66,2454.78 2107.5,2532.5C 1996.23,2562.55 1883.07,2578.22 1768,2579.5C 1657.71,2578.84 1549.55,2563.34 1443.5,2533C 1416.16,2524.66 1389.16,2515.33 1362.5,2505C 1341.25,2496.25 1320.25,2486.92 1299.5,2477C 1275.17,2464.51 1251.84,2450.51 1229.5,2435C 1225.3,2430.47 1220.8,2426.3 1216,2422.5C 1213.81,2417.57 1212.65,2412.41 1212.5,2407C 1213.32,2395.57 1215.49,2384.4 1219,2373.5C 1234.02,2334.12 1250.02,2295.12 1267,2256.5C 1275.22,2235.18 1282.22,2213.51 1288,2191.5C 1290.6,2180.21 1290.93,2168.88 1289,2157.5C 1287.44,2148.94 1282.6,2143.1 1274.5,2140C 1259.48,2137.18 1244.48,2137.51 1229.5,2141C 1219.85,2142.95 1210.35,2145.45 1201,2148.5C 1180.42,2155.71 1160.26,2163.87 1140.5,2173C 1059.14,2213.17 980.47,2257.67 904.5,2306.5C 839.891,2346.29 776.225,2387.45 713.5,2430C 634.719,2487.08 562.219,2551.91 496,2624.5C 467.337,2657.17 439.337,2690.51 412,2724.5C 374.169,2774.18 336.836,2824.18 300,2874.5C 269.227,2905.09 232.06,2917.59 188.5,2912C 140.708,2905.8 103.042,2883.3 75.5,2844.5C 60.467,2815.24 59.6337,2785.57 73,2755.5C 86.277,2733.22 103.444,2714.39 124.5,2699C 151.5,2681.83 178.833,2665.16 206.5,2649C 287.65,2598.85 363.983,2542.19 435.5,2479C 540.933,2382.27 627.766,2271.1 696,2145.5C 740.99,2071.53 781.323,1994.86 817,1915.5C 822.472,1900.08 828.139,1884.75 834,1869.5C 838.435,1853.98 842.102,1838.32 845,1822.5C 846.096,1812.03 845.429,1801.69 843,1791.5C 840.588,1787.7 837.088,1785.54 832.5,1785C 812.001,1784.5 792.168,1788 773,1795.5C 762.264,1799.86 751.431,1804.02 740.5,1808C 684.416,1833.03 628.25,1857.86 572,1882.5C 558.122,1887.35 544.289,1892.18 530.5,1897C 518.647,1900.48 506.647,1901.48 494.5,1900C 481.005,1890.13 468.505,1878.97 457,1866.5C 410.086,1815.1 373.253,1757.6 346.5,1694C 341.205,1682.57 336.038,1671.07 331,1659.5C 305.668,1590.56 286.002,1519.56 272,1446.5C 257.069,1363.72 246.736,1280.39 241,1196.5C 237.144,1116.57 242.144,1037.23 256,958.5C 274.597,858.746 303.93,762.746 344,670.5C 418.217,505.67 517.55,358.003 642,227.5C 667.899,202.264 694.399,177.764 721.5,154C 733.191,144.969 744.857,135.969 756.5,127C 769.66,117.584 783.326,108.917 797.5,101C 808.726,95.4803 820.392,91.147 832.5,88C 844.713,84.6217 854.213,88.1217 861,98.5C 866.113,113.398 868.279,128.731 867.5,144.5C 867.309,159.868 866.476,175.201 865,190.5C 855.895,263.442 847.895,336.442 841,409.5C 831.231,529.418 835.565,648.751 854,767.5C 858.643,792.387 863.81,817.053 869.5,841.5 Z"/></g>
<g><path style="opacity:0.999" fill="#febd7a" d="M 2293.5,1928.5 C 2234.69,1928.16 2176.02,1925.16 2117.5,1919.5C 2112.73,1918.11 2107.73,1917.44 2102.5,1917.5C 2097.48,1917.39 2092.48,1917.05 2087.5,1916.5C 2076.72,1914.27 2065.72,1912.61 2054.5,1911.5C 2012.07,1905.76 1970.07,1898.1 1928.5,1888.5C 1926.49,1887.08 1924.15,1886.41 1921.5,1886.5C 1834,1867.28 1751.34,1835.78 1673.5,1792C 1640.17,1772.36 1610,1748.52 1583,1720.5C 1574.39,1710.55 1567.39,1699.55 1562,1687.5C 1545.88,1635.58 1543.05,1582.92 1553.5,1529.5C 1554.92,1527.49 1555.59,1525.15 1555.5,1522.5C 1557.84,1510.8 1560.68,1499.13 1564,1487.5C 1565.23,1483.28 1566.73,1479.28 1568.5,1475.5C 1569.92,1473.49 1570.59,1471.15 1570.5,1468.5C 1579.06,1443.71 1589.56,1419.71 1602,1396.5C 1618.31,1362.86 1639.31,1332.52 1665,1305.5C 1692.97,1279.2 1720.64,1252.53 1748,1225.5C 1750.67,1221.5 1753.33,1217.5 1756,1213.5C 1757.72,1208.62 1756.22,1205.45 1751.5,1204C 1742.29,1201.71 1732.95,1201.04 1723.5,1202C 1691.93,1208.18 1660.27,1213.85 1628.5,1219C 1594.37,1217.43 1560.2,1216.26 1526,1215.5C 1505.1,1215.23 1484.26,1216.23 1463.5,1218.5C 1454.98,1219.48 1446.65,1220.81 1438.5,1222.5C 1422.09,1225.44 1406.09,1229.94 1390.5,1236C 1368.91,1246.96 1349.25,1260.62 1331.5,1277C 1312.67,1296.39 1292.01,1313.39 1269.5,1328C 1250.63,1338.02 1230.63,1341.85 1209.5,1339.5C 1207.49,1338.08 1205.15,1337.41 1202.5,1337.5C 1189.06,1334.72 1176.06,1330.56 1163.5,1325C 1120.25,1303.76 1082.75,1274.93 1051,1238.5C 1016.24,1198.05 986.576,1154.05 962,1106.5C 934.342,1049.87 911.175,991.532 892.5,931.5C 892.59,928.848 891.924,926.515 890.5,924.5C 885.642,906.424 880.475,888.424 875,870.5C 872.68,860.893 870.846,851.226 869.5,841.5C 957.563,639.604 1098.56,486.437 1292.5,382C 1493.1,279.124 1704.44,247.79 1926.5,288C 2151.11,332.829 2336.61,442.329 2483,616.5C 2649.41,825.403 2713.57,1062.74 2675.5,1328.5C 2638.06,1540.28 2539.73,1717.45 2380.5,1860C 2352.52,1884.3 2323.52,1907.13 2293.5,1928.5 Z"/></g>
<g><path style="opacity:1" fill="#bd98c7" d="M 890.5,924.5 C 891.924,926.515 892.59,928.848 892.5,931.5C 891.076,929.485 890.41,927.152 890.5,924.5 Z"/></g>
<g><path style="opacity:1" fill="#a78fd9" d="M 1463.5,1218.5 C 1463.08,1219.22 1462.42,1219.72 1461.5,1220C 1453.86,1221.16 1446.19,1222 1438.5,1222.5C 1446.65,1220.81 1454.98,1219.48 1463.5,1218.5 Z"/></g>
<g><path style="opacity:1" fill="#cda0b9" d="M 1202.5,1337.5 C 1205.15,1337.41 1207.49,1338.08 1209.5,1339.5C 1206.85,1339.59 1204.51,1338.92 1202.5,1337.5 Z"/></g>
<g><path style="opacity:1" fill="#dea6ab" d="M 1570.5,1468.5 C 1570.59,1471.15 1569.92,1473.49 1568.5,1475.5C 1568.41,1472.85 1569.08,1470.51 1570.5,1468.5 Z"/></g>
<g><path style="opacity:1" fill="#d7a4b1" d="M 1555.5,1522.5 C 1555.59,1525.15 1554.92,1527.49 1553.5,1529.5C 1553.41,1526.85 1554.08,1524.51 1555.5,1522.5 Z"/></g>
<g><path style="opacity:1" fill="#d4a3b2" d="M 1921.5,1886.5 C 1924.15,1886.41 1926.49,1887.08 1928.5,1888.5C 1925.85,1888.59 1923.51,1887.92 1921.5,1886.5 Z"/></g>
<g><path style="opacity:1" fill="#be99c7" d="M 2054.5,1911.5 C 2065.72,1912.61 2076.72,1914.27 2087.5,1916.5C 2077.17,1915.42 2066.83,1914.25 2056.5,1913C 2055.58,1912.72 2054.92,1912.22 2054.5,1911.5 Z"/></g>
<g><path style="opacity:1" fill="#e0a8a9" d="M 2102.5,1917.5 C 2107.73,1917.44 2112.73,1918.11 2117.5,1919.5C 2112.27,1919.56 2107.27,1918.89 2102.5,1917.5 Z"/></g>
</svg>
