<?xml version="1.0" encoding="UTF-8"?>
<!DOCTYPE svg PUBLIC "-//W3C//DTD SVG 1.1//EN" "http://www.w3.org/Graphics/SVG/1.1/DTD/svg11.dtd">
<svg xmlns="http://www.w3.org/2000/svg" version="1.1" width="3000px" height="3000px" style="shape-rendering:geometricPrecision; text-rendering:geometricPrecision; image-rendering:optimizeQuality; fill-rule:evenodd; clip-rule:evenodd" xmlns:xlink="http://www.w3.org/1999/xlink">
<g><path style="opacity:1" fill="#4e4eaa" d="M 1475.5,45.5 C 1535.37,41.5072 1591.71,53.6739 1644.5,82C 1983.83,278 2323.17,474 2662.5,670C 2742.39,724.686 2787.56,800.519 2798,897.5C 2798.67,1298.5 2798.67,1699.5 2798,2100.5C 2787.41,2199.92 2740.58,2276.75 2657.5,2331C 2322.83,2524.33 1988.17,2717.67 1653.5,2911C 1579.41,2953.11 1501.08,2963.44 1418.5,2942C 1396.22,2935.68 1374.88,2927.02 1354.5,2916C 1014,2719.59 673.67,2522.92 333.5,2326C 255.1,2271.42 210.934,2196.26 201,2100.5C 200.333,1699.5 200.333,1298.5 201,897.5C 212.259,794.4 261.759,715.9 349.5,662C 684.663,468.919 1019.66,275.586 1354.5,82C 1392.48,61.5953 1432.81,49.4286 1475.5,45.5 Z"/></g>
<g><path style="opacity:1" fill="#8282ef" d="M 1488.5,208.5 C 1515.87,206.926 1541.54,212.759 1565.5,226C 1901.5,420 2237.5,614 2573.5,808C 2609.6,831.344 2630.1,864.511 2635,907.5C 2635.67,1301.83 2635.67,1696.17 2635,2090.5C 2630.13,2136.32 2607.96,2170.82 2568.5,2194C 2236.24,2385.27 1904.24,2576.93 1572.5,2769C 1527.2,2795.97 1481.2,2797.3 1434.5,2773C 1098.5,2579 762.5,2385 426.5,2191C 389.822,2167.17 369.322,2133.34 365,2089.5C 364.333,1694.5 364.333,1299.5 365,904.5C 371.358,860.579 393.524,827.412 431.5,805C 765.997,612.253 1100.33,419.253 1434.5,226C 1451.37,216.209 1469.37,210.376 1488.5,208.5 Z"/></g>
<g><path style="opacity:1" fill="#ebedf0" d="M 486.5,924.5 C 487.873,924.343 489.207,924.51 490.5,925C 826.482,1090.24 1162.65,1255.07 1499,1419.5C 1830.5,1257.66 2161.67,1095.16 2492.5,932C 2498.17,929.497 2503.84,926.997 2509.5,924.5C 2514.66,926.162 2515.66,929.162 2512.5,933.5C 2201.75,1142.29 1890.92,1350.96 1580,1559.5C 1553.96,1933.45 1528.63,2307.45 1504,2681.5C 1500.16,2685.73 1496.82,2685.4 1494,2680.5C 1469.92,2321.84 1445.92,1963.17 1422,1604.5C 1421.1,1589.1 1419.6,1573.77 1417.5,1558.5C 1106.33,1350.08 795.328,1141.41 484.5,932.5C 482.971,929.282 483.638,926.615 486.5,924.5 Z"/></g>
</svg>
